<?xml version="1.0" encoding="UTF-8" standalone="no"?>
<svg
   xmlns:dc="http://purl.org/dc/elements/1.1/"
   xmlns:cc="http://creativecommons.org/ns#"
   xmlns:rdf="http://www.w3.org/1999/02/22-rdf-syntax-ns#"
   xmlns:svg="http://www.w3.org/2000/svg"
   xmlns="http://www.w3.org/2000/svg"
   xmlns:sodipodi="http://sodipodi.sourceforge.net/DTD/sodipodi-0.dtd"
   xmlns:inkscape="http://www.inkscape.org/namespaces/inkscape"
   version="1.1"
   id="Layer_1"
   x="0px"
   y="0px"
   width="512px"
   height="512px"
   viewBox="0 0 512 512"
   enable-background="new 0 0 512 512"
   xml:space="preserve"
   sodipodi:docname="9 - updated.svg"
   inkscape:version="1.0.2-2 (e86c870879, 2021-01-15)"><metadata
   id="metadata619"><rdf:RDF><cc:Work
       rdf:about=""><dc:format>image/svg+xml</dc:format><dc:type
         rdf:resource="http://purl.org/dc/dcmitype/StillImage" /><dc:title></dc:title></cc:Work></rdf:RDF></metadata><defs
   id="defs617" /><sodipodi:namedview
   pagecolor="#ffffff"
   bordercolor="#666666"
   borderopacity="1"
   objecttolerance="10"
   gridtolerance="10"
   guidetolerance="10"
   inkscape:pageopacity="0"
   inkscape:pageshadow="2"
   inkscape:window-width="1504"
   inkscape:window-height="843"
   id="namedview615"
   showgrid="false"
   inkscape:zoom="1.1739077"
   inkscape:cx="238.53481"
   inkscape:cy="265.4811"
   inkscape:window-x="186"
   inkscape:window-y="108"
   inkscape:window-maximized="0"
   inkscape:current-layer="Layer_1"
   inkscape:document-rotation="0" />
<g
   id="Grid_1_">
	<g
   id="Layer_1_1_">
		<g
   id="Grid">
			<g
   id="g607">
				<rect
   fill="none"
   stroke="#A9CCDB"
   stroke-miterlimit="10"
   width="512"
   height="512"
   id="rect545" />
				<line
   fill="none"
   stroke="#A9CCDB"
   stroke-miterlimit="10"
   x1="0"
   y1="480"
   x2="512"
   y2="480"
   id="line547" />
				<line
   fill="none"
   stroke="#A9CCDB"
   stroke-miterlimit="10"
   x1="0"
   y1="448"
   x2="512"
   y2="448"
   id="line549" />
				<line
   fill="none"
   stroke="#A9CCDB"
   stroke-miterlimit="10"
   x1="0"
   y1="416"
   x2="512"
   y2="416"
   id="line551" />
				<line
   fill="none"
   stroke="#A9CCDB"
   stroke-miterlimit="10"
   x1="0"
   y1="384"
   x2="512"
   y2="384"
   id="line553" />
				<line
   fill="none"
   stroke="#A9CCDB"
   stroke-miterlimit="10"
   x1="0"
   y1="352"
   x2="512"
   y2="352"
   id="line555" />
				<line
   fill="none"
   stroke="#A9CCDB"
   stroke-miterlimit="10"
   x1="0"
   y1="320"
   x2="512"
   y2="320"
   id="line557" />
				<line
   fill="none"
   stroke="#A9CCDB"
   stroke-miterlimit="10"
   x1="0"
   y1="288"
   x2="512"
   y2="288"
   id="line559" />
				<line
   fill="none"
   stroke="#A9CCDB"
   stroke-miterlimit="10"
   x1="0"
   y1="256"
   x2="512"
   y2="256"
   id="line561" />
				<line
   fill="none"
   stroke="#A9CCDB"
   stroke-miterlimit="10"
   x1="0"
   y1="224"
   x2="512"
   y2="224"
   id="line563" />
				<line
   fill="none"
   stroke="#A9CCDB"
   stroke-miterlimit="10"
   x1="0"
   y1="192"
   x2="512"
   y2="192"
   id="line565" />
				<line
   fill="none"
   stroke="#A9CCDB"
   stroke-miterlimit="10"
   x1="0"
   y1="160"
   x2="512"
   y2="160"
   id="line567" />
				<line
   fill="none"
   stroke="#A9CCDB"
   stroke-miterlimit="10"
   x1="0"
   y1="128"
   x2="512"
   y2="128"
   id="line569" />
				<line
   fill="none"
   stroke="#A9CCDB"
   stroke-miterlimit="10"
   x1="0"
   y1="96"
   x2="512"
   y2="96"
   id="line571" />
				<line
   fill="none"
   stroke="#A9CCDB"
   stroke-miterlimit="10"
   x1="0"
   y1="64"
   x2="512"
   y2="64"
   id="line573" />
				<line
   fill="none"
   stroke="#A9CCDB"
   stroke-miterlimit="10"
   x1="0"
   y1="32"
   x2="512"
   y2="32"
   id="line575" />
				<line
   fill="none"
   stroke="#A9CCDB"
   stroke-miterlimit="10"
   x1="480"
   y1="0"
   x2="480"
   y2="512"
   id="line577" />
				<line
   fill="none"
   stroke="#A9CCDB"
   stroke-miterlimit="10"
   x1="448"
   y1="0"
   x2="448"
   y2="512"
   id="line579" />
				<line
   fill="none"
   stroke="#A9CCDB"
   stroke-miterlimit="10"
   x1="416"
   y1="0"
   x2="416"
   y2="512"
   id="line581" />
				<line
   fill="none"
   stroke="#A9CCDB"
   stroke-miterlimit="10"
   x1="384"
   y1="0"
   x2="384"
   y2="512"
   id="line583" />
				<line
   fill="none"
   stroke="#A9CCDB"
   stroke-miterlimit="10"
   x1="352"
   y1="0"
   x2="352"
   y2="512"
   id="line585" />
				<line
   fill="none"
   stroke="#A9CCDB"
   stroke-miterlimit="10"
   x1="320"
   y1="0"
   x2="320"
   y2="512"
   id="line587" />
				<line
   fill="none"
   stroke="#A9CCDB"
   stroke-miterlimit="10"
   x1="288"
   y1="0"
   x2="288"
   y2="512"
   id="line589" />
				<line
   fill="none"
   stroke="#A9CCDB"
   stroke-miterlimit="10"
   x1="256"
   y1="0"
   x2="256"
   y2="512"
   id="line591" />
				<line
   fill="none"
   stroke="#A9CCDB"
   stroke-miterlimit="10"
   x1="224"
   y1="0"
   x2="224"
   y2="512"
   id="line593" />
				<line
   fill="none"
   stroke="#A9CCDB"
   stroke-miterlimit="10"
   x1="192"
   y1="0"
   x2="192"
   y2="512"
   id="line595" />
				<line
   fill="none"
   stroke="#A9CCDB"
   stroke-miterlimit="10"
   x1="160"
   y1="0"
   x2="160"
   y2="512"
   id="line597" />
				<line
   fill="none"
   stroke="#A9CCDB"
   stroke-miterlimit="10"
   x1="128"
   y1="0"
   x2="128"
   y2="512"
   id="line599" />
				<line
   fill="none"
   stroke="#A9CCDB"
   stroke-miterlimit="10"
   x1="96"
   y1="0"
   x2="96"
   y2="512"
   id="line601" />
				<line
   fill="none"
   stroke="#A9CCDB"
   stroke-miterlimit="10"
   x1="64"
   y1="0"
   x2="64"
   y2="512"
   id="line603" />
				<line
   fill="none"
   stroke="#A9CCDB"
   stroke-miterlimit="10"
   x1="32"
   y1="0"
   x2="32"
   y2="512"
   id="line605" />
			</g>
		</g>
	</g>
</g>
<path
   fill="#1d1d1b"
   d="m 435.062,236.166 c 4.875,-3.625 9.812,-7.188 14.229,-11.604 13.208,-13.229 23.271,-29.333 29.792,-47.854 2.083,-5.792 0.604,-12.292 -3.772,-16.625 -4.354,-4.375 -10.812,-5.854 -16.623,-3.792 -35.396,12.5 -73.688,4 -99.896,-22.25 C 332.542,107.79 324,69.52 336.542,34.145 c 2.042,-5.813 0.583,-12.271 -3.792,-16.646 -4.333,-4.333 -10.812,-5.834 -16.625,-3.791 -18.542,6.582 -34.625,16.623 -47.834,29.832 -33.541,33.5 -43.979,81 -32.479,123.792 -43.25,5.521 -82.125,28.5 -108.021,63.793 -5.229,-0.75 -10.479,-1.125 -15.792,-1.125 -61.75,0 -112,50.25 -112,112.001 0,61.749 50.25,111.999 112,111.999 13.688,0 27.084,-2.5 39.709,-7.334 28.957,25.25 65.791,39.334 104.291,39.334 38.542,0 75.333,-14.084 104.291,-39.334 12.625,4.834 26.021,7.334 39.709,7.334 61.75,0 112,-50.25 112,-111.999 C 512,292.562 479.583,250.979 435.062,236.166 Z m -144.146,-170 c 2.542,-2.583 5.271,-4.979 8.146,-7.229 -2.25,35.979 10.729,71.375 37.104,97.729 26.376,26.375 61.771,39.333 97.751,37.104 -13.792,17.584 -32.792,28.521 -53.126,33.188 C 353.416,192.208 313.187,170.333 268.833,166.771 256.562,132.812 263.75,93.333 290.916,66.166 Z M 400,422 c -17.125,0 -32.916,-5.5 -45.938,-14.667 C 330.583,435.625 295.624,454 256,454 216.375,454 181.416,435.625 157.938,407.333 144.938,416.5 129.126,422 112,422 67.812,422 32,386.188 32,342.001 c 0,-44.188 35.812,-80 80,-80 10.812,0 21.062,2.188 30.438,6.062 20.188,-39.355 59.75,-66.896 106.312,-69.543 2.438,-0.145 4.812,-0.521 7.25,-0.521 12.916,0 25.312,2.021 37,5.583 15.791,4.834 30.188,12.708 42.688,22.854 11.938,9.688 21.938,21.562 29.812,34.896 1.333,2.25 2.834,4.375 4.041,6.729 9.396,-3.875 19.668,-6.062 30.459,-6.062 44.188,0 80,35.812 80,80 C 480,386.187 444.188,422 400,422 Z"
   id="path612" />
</svg>
