<?xml version="1.0" encoding="UTF-8" standalone="no"?>
<svg
   xmlns:dc="http://purl.org/dc/elements/1.1/"
   xmlns:cc="http://creativecommons.org/ns#"
   xmlns:rdf="http://www.w3.org/1999/02/22-rdf-syntax-ns#"
   xmlns:svg="http://www.w3.org/2000/svg"
   xmlns="http://www.w3.org/2000/svg"
   xmlns:sodipodi="http://sodipodi.sourceforge.net/DTD/sodipodi-0.dtd"
   xmlns:inkscape="http://www.inkscape.org/namespaces/inkscape"
   version="1.1"
   id="Layer_1"
   x="0px"
   y="0px"
   width="512px"
   height="512px"
   viewBox="0 0 512 512"
   enable-background="new 0 0 512 512"
   xml:space="preserve"
   sodipodi:docname="9.svg"
   inkscape:version="1.0.2-2 (e86c870879, 2021-01-15)"><metadata
   id="metadata619"><rdf:RDF><cc:Work
       rdf:about=""><dc:format>image/svg+xml</dc:format><dc:type
         rdf:resource="http://purl.org/dc/dcmitype/StillImage" /></cc:Work></rdf:RDF></metadata><defs
   id="defs617" /><sodipodi:namedview
   pagecolor="#ffffff"
   bordercolor="#666666"
   borderopacity="1"
   objecttolerance="10"
   gridtolerance="10"
   guidetolerance="10"
   inkscape:pageopacity="0"
   inkscape:pageshadow="2"
   inkscape:window-width="1504"
   inkscape:window-height="843"
   id="namedview615"
   showgrid="false"
   inkscape:zoom="1.1739077"
   inkscape:cx="238.53481"
   inkscape:cy="265.4811"
   inkscape:window-x="186"
   inkscape:window-y="108"
   inkscape:window-maximized="0"
   inkscape:current-layer="Layer_1" />
<g
   id="Grid_1_">
	<g
   id="Layer_1_1_">
		<g
   id="Grid">
			<g
   id="g607">
				<rect
   fill="none"
   stroke="#A9CCDB"
   stroke-miterlimit="10"
   width="512"
   height="512"
   id="rect545" />
				<line
   fill="none"
   stroke="#A9CCDB"
   stroke-miterlimit="10"
   x1="0"
   y1="480"
   x2="512"
   y2="480"
   id="line547" />
				<line
   fill="none"
   stroke="#A9CCDB"
   stroke-miterlimit="10"
   x1="0"
   y1="448"
   x2="512"
   y2="448"
   id="line549" />
				<line
   fill="none"
   stroke="#A9CCDB"
   stroke-miterlimit="10"
   x1="0"
   y1="416"
   x2="512"
   y2="416"
   id="line551" />
				<line
   fill="none"
   stroke="#A9CCDB"
   stroke-miterlimit="10"
   x1="0"
   y1="384"
   x2="512"
   y2="384"
   id="line553" />
				<line
   fill="none"
   stroke="#A9CCDB"
   stroke-miterlimit="10"
   x1="0"
   y1="352"
   x2="512"
   y2="352"
   id="line555" />
				<line
   fill="none"
   stroke="#A9CCDB"
   stroke-miterlimit="10"
   x1="0"
   y1="320"
   x2="512"
   y2="320"
   id="line557" />
				<line
   fill="none"
   stroke="#A9CCDB"
   stroke-miterlimit="10"
   x1="0"
   y1="288"
   x2="512"
   y2="288"
   id="line559" />
				<line
   fill="none"
   stroke="#A9CCDB"
   stroke-miterlimit="10"
   x1="0"
   y1="256"
   x2="512"
   y2="256"
   id="line561" />
				<line
   fill="none"
   stroke="#A9CCDB"
   stroke-miterlimit="10"
   x1="0"
   y1="224"
   x2="512"
   y2="224"
   id="line563" />
				<line
   fill="none"
   stroke="#A9CCDB"
   stroke-miterlimit="10"
   x1="0"
   y1="192"
   x2="512"
   y2="192"
   id="line565" />
				<line
   fill="none"
   stroke="#A9CCDB"
   stroke-miterlimit="10"
   x1="0"
   y1="160"
   x2="512"
   y2="160"
   id="line567" />
				<line
   fill="none"
   stroke="#A9CCDB"
   stroke-miterlimit="10"
   x1="0"
   y1="128"
   x2="512"
   y2="128"
   id="line569" />
				<line
   fill="none"
   stroke="#A9CCDB"
   stroke-miterlimit="10"
   x1="0"
   y1="96"
   x2="512"
   y2="96"
   id="line571" />
				<line
   fill="none"
   stroke="#A9CCDB"
   stroke-miterlimit="10"
   x1="0"
   y1="64"
   x2="512"
   y2="64"
   id="line573" />
				<line
   fill="none"
   stroke="#A9CCDB"
   stroke-miterlimit="10"
   x1="0"
   y1="32"
   x2="512"
   y2="32"
   id="line575" />
				<line
   fill="none"
   stroke="#A9CCDB"
   stroke-miterlimit="10"
   x1="480"
   y1="0"
   x2="480"
   y2="512"
   id="line577" />
				<line
   fill="none"
   stroke="#A9CCDB"
   stroke-miterlimit="10"
   x1="448"
   y1="0"
   x2="448"
   y2="512"
   id="line579" />
				<line
   fill="none"
   stroke="#A9CCDB"
   stroke-miterlimit="10"
   x1="416"
   y1="0"
   x2="416"
   y2="512"
   id="line581" />
				<line
   fill="none"
   stroke="#A9CCDB"
   stroke-miterlimit="10"
   x1="384"
   y1="0"
   x2="384"
   y2="512"
   id="line583" />
				<line
   fill="none"
   stroke="#A9CCDB"
   stroke-miterlimit="10"
   x1="352"
   y1="0"
   x2="352"
   y2="512"
   id="line585" />
				<line
   fill="none"
   stroke="#A9CCDB"
   stroke-miterlimit="10"
   x1="320"
   y1="0"
   x2="320"
   y2="512"
   id="line587" />
				<line
   fill="none"
   stroke="#A9CCDB"
   stroke-miterlimit="10"
   x1="288"
   y1="0"
   x2="288"
   y2="512"
   id="line589" />
				<line
   fill="none"
   stroke="#A9CCDB"
   stroke-miterlimit="10"
   x1="256"
   y1="0"
   x2="256"
   y2="512"
   id="line591" />
				<line
   fill="none"
   stroke="#A9CCDB"
   stroke-miterlimit="10"
   x1="224"
   y1="0"
   x2="224"
   y2="512"
   id="line593" />
				<line
   fill="none"
   stroke="#A9CCDB"
   stroke-miterlimit="10"
   x1="192"
   y1="0"
   x2="192"
   y2="512"
   id="line595" />
				<line
   fill="none"
   stroke="#A9CCDB"
   stroke-miterlimit="10"
   x1="160"
   y1="0"
   x2="160"
   y2="512"
   id="line597" />
				<line
   fill="none"
   stroke="#A9CCDB"
   stroke-miterlimit="10"
   x1="128"
   y1="0"
   x2="128"
   y2="512"
   id="line599" />
				<line
   fill="none"
   stroke="#A9CCDB"
   stroke-miterlimit="10"
   x1="96"
   y1="0"
   x2="96"
   y2="512"
   id="line601" />
				<line
   fill="none"
   stroke="#A9CCDB"
   stroke-miterlimit="10"
   x1="64"
   y1="0"
   x2="64"
   y2="512"
   id="line603" />
				<line
   fill="none"
   stroke="#A9CCDB"
   stroke-miterlimit="10"
   x1="32"
   y1="0"
   x2="32"
   y2="512"
   id="line605" />
			</g>
		</g>
	</g>
</g>
<path
   fill="#1D1D1B"
   d="M435.062,262.166c4.875-3.625,9.812-7.188,14.229-11.604c13.208-13.229,23.271-29.333,29.792-47.854  c2.083-5.792,0.604-12.292-3.772-16.625c-4.354-4.375-10.812-5.854-16.623-3.792c-35.396,12.5-73.688,4-99.896-22.25  C332.542,133.79,324,95.52,336.542,60.145c2.042-5.813,0.583-12.271-3.792-16.646c-4.333-4.333-10.812-5.834-16.625-3.791  C297.583,46.29,281.5,56.331,268.291,69.54c-33.541,33.5-43.979,81-32.479,123.792c-43.25,5.521-82.125,28.5-108.021,63.793  c-5.229-0.75-10.479-1.125-15.792-1.125c-61.75,0-112,50.25-112,112.001c0,61.749,50.25,111.999,112,111.999  c13.688,0,27.084-2.5,39.709-7.334C180.665,497.916,217.499,512,255.999,512c38.542,0,75.333-14.084,104.291-39.334  C372.915,477.5,386.311,480,399.999,480c61.75,0,112-50.25,112-111.999C512,318.562,479.583,276.979,435.062,262.166z   M290.916,92.166c2.542-2.583,5.271-4.979,8.146-7.229c-2.25,35.979,10.729,71.375,37.104,97.729  c26.376,26.375,61.771,39.333,97.751,37.104c-13.792,17.584-32.792,28.521-53.126,33.188  c-27.375-34.75-67.604-56.625-111.958-60.187C256.562,158.812,263.75,119.333,290.916,92.166z M400,448  c-17.125,0-32.916-5.5-45.938-14.667C330.583,461.625,295.624,480,256,480c-39.625,0-74.584-18.375-98.062-46.667  C144.938,442.5,129.126,448,112,448c-44.188,0-80-35.812-80-79.999c0-44.188,35.812-80,80-80c10.812,0,21.062,2.188,30.438,6.062  c20.188-39.355,59.75-66.896,106.312-69.543c2.438-0.145,4.812-0.521,7.25-0.521c12.916,0,25.312,2.021,37,5.583  c15.791,4.834,30.188,12.708,42.688,22.854c11.938,9.688,21.938,21.562,29.812,34.896c1.333,2.25,2.834,4.375,4.041,6.729  c9.396-3.875,19.668-6.062,30.459-6.062c44.188,0,80,35.812,80,80S444.188,448,400,448z"
   id="path612" />
</svg>
